<mxfile host="app.diagrams.net" agent="Mozilla/5.0 (Windows NT 10.0; Win64; x64; rv:127.0) Gecko/20100101 Firefox/127.0" version="24.8.4">
  <diagram name="Page-1" id="90a13364-a465-7bf4-72fc-28e22215d7a0">
    <mxGraphModel dx="1140" dy="1057" grid="1" gridSize="10" guides="1" tooltips="1" connect="1" arrows="1" fold="1" page="1" pageScale="1.5" pageWidth="1169" pageHeight="826" background="none" math="0" shadow="0">
      <root>
        <mxCell id="0" style=";html=1;" />
        <mxCell id="1" style=";html=1;" parent="0" />
        <mxCell id="3a17f1ce550125da-13" style="edgeStyle=elbowEdgeStyle;rounded=0;html=1;startArrow=none;startFill=0;jettySize=auto;orthogonalLoop=1;fontSize=18;elbow=vertical;shape=link;" parent="1" source="3a17f1ce550125da-2" target="3a17f1ce550125da-4" edge="1">
          <mxGeometry relative="1" as="geometry">
            <Array as="points">
              <mxPoint x="1030" y="200" />
            </Array>
          </mxGeometry>
        </mxCell>
        <mxCell id="3a17f1ce550125da-2" value="pico-ice" style="whiteSpace=wrap;html=1;shadow=1;fontSize=18;fillColor=#f5f5f5;strokeColor=#666666;" parent="1" vertex="1">
          <mxGeometry x="640" y="150" width="370" height="280" as="geometry" />
        </mxCell>
        <mxCell id="3a17f1ce550125da-4" value="&lt;div&gt;qspi mole99&lt;br&gt;&lt;/div&gt;&lt;div&gt;PMOD&lt;br&gt;&lt;/div&gt;" style="whiteSpace=wrap;html=1;shadow=1;fontSize=18;fillColor=#f5f5f5;strokeColor=#666666;" parent="1" vertex="1">
          <mxGeometry x="1050" y="150" width="160" height="150" as="geometry" />
        </mxCell>
        <mxCell id="3a17f1ce550125da-5" value="fpga" style="whiteSpace=wrap;html=1;shadow=1;fontSize=18;fillColor=#f5f5f5;strokeColor=#666666;" parent="1" vertex="1">
          <mxGeometry x="820" y="170" width="180" height="60" as="geometry" />
        </mxCell>
        <mxCell id="3a17f1ce550125da-6" value="pico" style="whiteSpace=wrap;html=1;shadow=1;fontSize=18;fillColor=#f5f5f5;strokeColor=#666666;" parent="1" vertex="1">
          <mxGeometry x="660" y="170" width="120" height="60" as="geometry" />
        </mxCell>
        <mxCell id="3a17f1ce550125da-7" value="tinyQV" style="whiteSpace=wrap;html=1;shadow=1;fontSize=18;fillColor=#f5f5f5;strokeColor=#666666;" parent="1" vertex="1">
          <mxGeometry x="937" y="188" width="63" height="24" as="geometry" />
        </mxCell>
        <mxCell id="3a17f1ce550125da-8" value="computer" style="whiteSpace=wrap;html=1;shadow=1;fontSize=18;fillColor=#f5f5f5;strokeColor=#666666;" parent="1" vertex="1">
          <mxGeometry x="340" y="360" width="160" height="260" as="geometry" />
        </mxCell>
        <mxCell id="3a17f1ce550125da-9" value="&lt;div&gt;fpga&lt;br&gt;&lt;/div&gt;&lt;div&gt;FLASH&lt;/div&gt;" style="whiteSpace=wrap;html=1;shadow=1;fontSize=18;fillColor=#f5f5f5;strokeColor=#666666;" parent="1" vertex="1">
          <mxGeometry x="890" y="240" width="110" height="40" as="geometry" />
        </mxCell>
        <mxCell id="nI81fx_2xIRvmV9WYT-U-2" value="RAM A " style="whiteSpace=wrap;html=1;shadow=1;fontSize=18;fillColor=#f5f5f5;strokeColor=#666666;" vertex="1" parent="1">
          <mxGeometry x="1065.5" y="170" width="60" height="30" as="geometry" />
        </mxCell>
        <mxCell id="nI81fx_2xIRvmV9WYT-U-3" value="RAM B" style="whiteSpace=wrap;html=1;shadow=1;fontSize=18;fillColor=#f5f5f5;strokeColor=#666666;" vertex="1" parent="1">
          <mxGeometry x="1140" y="170" width="60" height="30" as="geometry" />
        </mxCell>
        <mxCell id="nI81fx_2xIRvmV9WYT-U-4" value="pico&lt;br&gt;FLASH" style="whiteSpace=wrap;html=1;shadow=1;fontSize=18;fillColor=#f5f5f5;strokeColor=#666666;" vertex="1" parent="1">
          <mxGeometry x="660" y="240" width="100" height="50" as="geometry" />
        </mxCell>
        <mxCell id="nI81fx_2xIRvmV9WYT-U-5" value="Tiny Tapeout Demo Board" style="whiteSpace=wrap;html=1;shadow=1;fontSize=18;fillColor=#f5f5f5;strokeColor=#666666;" vertex="1" parent="1">
          <mxGeometry x="640" y="530" width="370" height="320" as="geometry" />
        </mxCell>
        <mxCell id="nI81fx_2xIRvmV9WYT-U-6" value="TT06" style="whiteSpace=wrap;html=1;shadow=1;fontSize=18;fillColor=#f5f5f5;strokeColor=#666666;" vertex="1" parent="1">
          <mxGeometry x="800" y="550" width="200" height="60" as="geometry" />
        </mxCell>
        <mxCell id="nI81fx_2xIRvmV9WYT-U-7" value="tinyQV" style="whiteSpace=wrap;html=1;shadow=1;fontSize=18;fillColor=#f5f5f5;strokeColor=#666666;" vertex="1" parent="1">
          <mxGeometry x="937" y="568" width="63" height="24" as="geometry" />
        </mxCell>
        <mxCell id="nI81fx_2xIRvmV9WYT-U-8" value="&lt;div&gt;qspi mole99&lt;/div&gt;&lt;div&gt;PMOD&lt;br&gt;&lt;/div&gt;" style="whiteSpace=wrap;html=1;shadow=1;fontSize=18;fillColor=#f5f5f5;strokeColor=#666666;" vertex="1" parent="1">
          <mxGeometry x="1040" y="530" width="160" height="150" as="geometry" />
        </mxCell>
        <mxCell id="nI81fx_2xIRvmV9WYT-U-9" value="FLASH" style="whiteSpace=wrap;html=1;shadow=1;fontSize=18;fillColor=#f5f5f5;strokeColor=#666666;" vertex="1" parent="1">
          <mxGeometry x="1065.5" y="260" width="60" height="30" as="geometry" />
        </mxCell>
        <mxCell id="nI81fx_2xIRvmV9WYT-U-10" value="RAM A" style="whiteSpace=wrap;html=1;shadow=1;fontSize=18;fillColor=#f5f5f5;strokeColor=#666666;" vertex="1" parent="1">
          <mxGeometry x="1050" y="540" width="60" height="30" as="geometry" />
        </mxCell>
        <mxCell id="nI81fx_2xIRvmV9WYT-U-11" value="RAM B" style="whiteSpace=wrap;html=1;shadow=1;fontSize=18;fillColor=#f5f5f5;strokeColor=#666666;" vertex="1" parent="1">
          <mxGeometry x="1124.5" y="540" width="60" height="30" as="geometry" />
        </mxCell>
        <mxCell id="nI81fx_2xIRvmV9WYT-U-12" value="FLASH" style="whiteSpace=wrap;html=1;shadow=1;fontSize=18;fillColor=#f5f5f5;strokeColor=#666666;" vertex="1" parent="1">
          <mxGeometry x="1054.5" y="640" width="60" height="30" as="geometry" />
        </mxCell>
        <mxCell id="nI81fx_2xIRvmV9WYT-U-14" value="pico" style="whiteSpace=wrap;html=1;shadow=1;fontSize=18;fillColor=#f5f5f5;strokeColor=#666666;" vertex="1" parent="1">
          <mxGeometry x="650" y="550" width="120" height="60" as="geometry" />
        </mxCell>
        <mxCell id="nI81fx_2xIRvmV9WYT-U-15" value="pico&lt;br&gt;FLASH" style="whiteSpace=wrap;html=1;shadow=1;fontSize=18;fillColor=#f5f5f5;strokeColor=#666666;" vertex="1" parent="1">
          <mxGeometry x="650" y="620" width="100" height="50" as="geometry" />
        </mxCell>
        <mxCell id="nI81fx_2xIRvmV9WYT-U-16" style="edgeStyle=elbowEdgeStyle;rounded=0;html=1;startArrow=none;startFill=0;jettySize=auto;orthogonalLoop=1;fontSize=18;elbow=vertical;shape=link;" edge="1" parent="1">
          <mxGeometry relative="1" as="geometry">
            <mxPoint x="1006" y="580" as="sourcePoint" />
            <mxPoint x="1046" y="580" as="targetPoint" />
            <Array as="points">
              <mxPoint x="1026" y="580" />
            </Array>
          </mxGeometry>
        </mxCell>
        <mxCell id="nI81fx_2xIRvmV9WYT-U-17" value="&lt;div&gt;1.3&quot; LCD SPI&lt;br&gt;&lt;/div&gt;" style="whiteSpace=wrap;html=1;shadow=1;fontSize=18;fillColor=#f5f5f5;strokeColor=#666666;" vertex="1" parent="1">
          <mxGeometry x="1040" y="700" width="160" height="110" as="geometry" />
        </mxCell>
        <mxCell id="nI81fx_2xIRvmV9WYT-U-18" value="&lt;div&gt;1.3&quot; LCD SPI&lt;br&gt;&lt;/div&gt;" style="whiteSpace=wrap;html=1;shadow=1;fontSize=18;fillColor=#f5f5f5;strokeColor=#666666;" vertex="1" parent="1">
          <mxGeometry x="1050" y="320" width="160" height="110" as="geometry" />
        </mxCell>
        <mxCell id="nI81fx_2xIRvmV9WYT-U-19" value="" style="endArrow=none;dashed=1;html=1;dashPattern=1 3;strokeWidth=2;rounded=0;" edge="1" parent="1">
          <mxGeometry width="50" height="50" relative="1" as="geometry">
            <mxPoint x="620" y="480" as="sourcePoint" />
            <mxPoint x="620" y="130" as="targetPoint" />
          </mxGeometry>
        </mxCell>
        <mxCell id="nI81fx_2xIRvmV9WYT-U-20" value="" style="endArrow=none;dashed=1;html=1;rounded=0;" edge="1" parent="1">
          <mxGeometry width="50" height="50" relative="1" as="geometry">
            <mxPoint x="620" y="490" as="sourcePoint" />
            <mxPoint x="1260" y="490" as="targetPoint" />
          </mxGeometry>
        </mxCell>
        <mxCell id="nI81fx_2xIRvmV9WYT-U-21" value="" style="endArrow=none;dashed=1;html=1;rounded=0;" edge="1" parent="1">
          <mxGeometry width="50" height="50" relative="1" as="geometry">
            <mxPoint x="620" y="130" as="sourcePoint" />
            <mxPoint x="1260" y="130" as="targetPoint" />
          </mxGeometry>
        </mxCell>
        <mxCell id="nI81fx_2xIRvmV9WYT-U-22" value="" style="endArrow=none;dashed=1;html=1;dashPattern=1 3;strokeWidth=2;rounded=0;" edge="1" parent="1">
          <mxGeometry width="50" height="50" relative="1" as="geometry">
            <mxPoint x="1270" y="490" as="sourcePoint" />
            <mxPoint x="1270" y="140" as="targetPoint" />
          </mxGeometry>
        </mxCell>
        <mxCell id="nI81fx_2xIRvmV9WYT-U-23" value="development platform" style="text;strokeColor=none;fillColor=none;html=1;fontSize=24;fontStyle=0;verticalAlign=middle;align=center;" vertex="1" parent="1">
          <mxGeometry x="1104.5" y="90" width="100" height="40" as="geometry" />
        </mxCell>
      </root>
    </mxGraphModel>
  </diagram>
</mxfile>
